<?xml version="1.0" encoding="utf-8"?>
<!-- Generator: Adobe Illustrator 26.5.0, SVG Export Plug-In . SVG Version: 6.00 Build 0)  -->
<svg version="1.1" id="Layer_1_copy" xmlns="http://www.w3.org/2000/svg" xmlns:xlink="http://www.w3.org/1999/xlink" x="0px"
	 y="0px" viewBox="0 0 512 512" style="enable-background:new 0 0 512 512;" xml:space="preserve">
<style type="text/css">
	.st0{fill:#BBBBBB;}
</style>
<path class="st0" d="M512,483.9v8.7H376.4v-8.7c17.3,0,36.1-18.7,26-40.4C393.7,420.4,248.1,80,248.1,80l26-60.6l184.6,428.3
	C458.6,447.8,473.1,483.9,512,483.9 M164.4,483.9c0,0-69.2-1.4-56.2-75c0,0-28.8,75-108.2,75v8.7h164.4V483.9 M274,336.8h-21.6
	v-21.6h-8.7v21.6h-21.6v8.7h21.6v21.6h8.7v-21.6H274V336.8z"/>
</svg>
