<?xml version="1.0" standalone="no"?>
<!DOCTYPE svg PUBLIC "-//W3C//DTD SVG 20010904//EN"
 "http://www.w3.org/TR/2001/REC-SVG-20010904/DTD/svg10.dtd">
<svg version="1.0" xmlns="http://www.w3.org/2000/svg"
 width="700.000000pt" height="700.000000pt" viewBox="0 0 700.000000 700.000000"
 preserveAspectRatio="xMidYMid meet">
<metadata>
Created by potrace 1.14, written by Peter Selinger 2001-2017
</metadata>
<g transform="translate(0.000000,700.000000) scale(0.100000,-0.100000)"
fill="#000000" stroke="none">
<path d="M3571 6323 c-96 -223 -174 -411 -174 -417 0 -6 248 -591 550 -1301
903 -2115 1441 -3384 1542 -3635 41 -105 46 -123 46 -200 0 -75 -4 -93 -31
-150 -55 -115 -181 -211 -300 -228 l-49 -7 -3 -58 -3 -57 926 0 925 0 0 55 c0
61 8 56 -121 70 -224 24 -469 208 -586 440 -11 22 -587 1354 -1278 2960 -692
1606 -1261 2923 -1264 2927 -4 4 -85 -175 -180 -399z"/>
<path d="M3330 2545 l0 -145 -145 0 -145 0 0 -60 0 -60 145 0 145 0 0 -150 0
-150 60 0 60 0 0 150 0 150 150 0 151 0 -3 58 -3 57 -147 3 -148 3 0 144 0
145 -60 0 -60 0 0 -145z"/>
<path d="M1435 1314 c-264 -520 -752 -876 -1260 -919 -38 -3 -94 -8 -122 -11
l-53 -5 0 -55 0 -54 1125 0 1125 0 0 54 c0 62 2 60 -93 71 -140 16 -313 85
-425 170 -116 87 -207 225 -247 370 -20 73 -31 317 -17 398 5 31 8 57 7 57 -1
0 -19 -34 -40 -76z"/>
</g>
</svg>
