<?xml version="1.0" encoding="utf-8"?>
<!-- Generator: Adobe Illustrator 23.0.3, SVG Export Plug-In . SVG Version: 6.00 Build 0)  -->
<svg version="1.1" id="Layer_1" xmlns="http://www.w3.org/2000/svg" xmlns:xlink="http://www.w3.org/1999/xlink" x="0px" y="0px"
	 viewBox="0 0 77.6 21" style="enable-background:new 0 0 77.6 21;" xml:space="preserve">
<style type="text/css">
	.st0{fill:#666666;}
</style>
<path class="st0" d="M59.6,3.1L45.5,17.2c-3.7,3.7-9.7,3.7-13.4,0s-3.7-9.7,0-13.4s9.7-3.7,13.4,0C45.7,4,46,4,46.2,3.8
	c0.2-0.2,0.2-0.5,0-0.7C42.1-1,35.4-1,31.4,3.1L17.2,17.2c-3.7,3.7-9.7,3.7-13.4,0s-3.7-9.7,0-13.4c3.6-3.6,9.3-3.7,13.1-0.3
	l-6.7,6.7c-0.2,0.2-0.2,0.5,0,0.7c0.2,0.2,0.5,0.2,0.7,0l7.4-7.4l-0.4-0.4C13.8-1,7.2-1,3.1,3.1s-4.1,10.8,0,14.8s10.8,4.1,14.8,0
	l11-11c-1.3,3.7-0.5,8,2.4,11c4.1,4.1,10.8,4.1,14.8,0L60.3,3.8c3.7-3.7,9.7-3.7,13.4,0s3.7,9.7,0,13.4s-9.7,3.7-13.4,0l-5-5
	c-0.2-0.2-0.5-0.2-0.7,0c-0.2,0.2-0.2,0.5,0,0.7l5,5c4.1,4.1,10.8,4.1,14.8,0s4.1-10.8,0-14.8S63.7-1,59.6,3.1z"/>
</svg>
