<?xml version="1.0" encoding="utf-8"?>
<!-- Generator: Adobe Illustrator 25.4.0, SVG Export Plug-In . SVG Version: 6.00 Build 0)  -->
<svg version="1.1" id="Layer_1" xmlns="http://www.w3.org/2000/svg" xmlns:xlink="http://www.w3.org/1999/xlink" x="0px" y="0px"
	 viewBox="0 0 35.5 32.8" style="enable-background:new 0 0 35.5 32.8;" xml:space="preserve">
<path d="M35.5,32.2v0.6l-9.4,0v-0.6c1.2,0,2.5-1.3,1.8-2.8C27.3,27.8,17.2,4.2,17.2,4.2L19,0l12.8,29.7
	C31.8,29.7,32.8,32.2,35.5,32.2 M11.4,32.2c0,0-4.8-0.1-3.9-5.2c0,0-2,5.2-7.5,5.2v0.6l11.4,0V32.2 M17.4,20.6l-0.3,0l0,1.6l-1.7,0
	l0,0.3h1.7l0,1.6l0.3,0v-1.6H19l0-0.3l-1.6,0L17.4,20.6z"/>
</svg>
